<svg version="1.2" xmlns="http://www.w3.org/2000/svg" viewBox="0 0 416 143" width="416" height="143"><style>.a{fill:#3763ad}.b{fill:#644d9d}.c{fill:#ea5a4b}</style><path class="a" d="m34.3 11.2v-11.7h-23v23h-11.5v11.7h11.5v22.8h23v-11.4h-11.3v-11.4h-11.7v-11.7h11.5v-11.3zm346.8 0v-11.7h23.1v23h11.5v11.7h-11.5v22.8h-23.1v-11.4h11.4v-11.4h11.7v-11.7h-11.6v-11.3z"/><path class="b" d="m47.2 56.9v-57.7h34.4v11.5h-22.9v34.9h22.9v11.3zm47.7-0.1v-57.6h11.6v57.6zm11.6-11.3zm-0.1-34.7v-11.6h23.1v57.6h-23.1v-11.3h11.7v-34.7zm36.3 46v-57.6h22.9v11.7h-11.4v34.6h11.4v11.3zm22.9-11.3v-34.6h11.3v34.6zm24.7 11.6v-57.7h34.5v11.6h-23.1v11.5h11.7v11.6h-11.7v11.6h23.1v11.4zm70.9-34.9v11.5h-11.5v23.1h-11.5v-57.6h34.7v11.5h-23v11.5zm0 11.5l0.1-23h11.5v23zm24.4 23.4v-57.7h34.5v11.6h-23.1v11.5h11.7v11.6h-11.7v11.6h23.1v11.4zm47.7-0.1v-57.7h34.6v57.7h-11.4v-46h-11.5v46z"/><path class="c" d="m36.3 108.2v11.5h-11.5v23.1h-11.5v-57.6h34.7v11.5h-23v11.5zm0.1 11.5v-23h11.6l-0.1 23zm94.8 23.4v-57.7h34.5v11.6h-23.1v11.5h11.7v11.6h-11.7v11.6h23.1v11.4zm118.1-0.1v-57.7h34.6v57.7h-11.4v-46h-11.5v46zm118.2-23.2v-34.6h34.6v11.6h-22.9v11.6h22.9v34.5h-34.6v-11.6h23.2v-11.5z"/></svg>